<svg xmlns="http://www.w3.org/2000/svg" width="176" height="76" viewBox="0 0 176 76" version="1.1"><path d="M 124.500 5.687 C 118.043 6.566, 110.647 9.250, 102.751 13.581 C 80.533 25.768, 71.340 28.563, 56.500 27.644 C 43.036 26.810, 38.017 25.394, 25.186 18.812 C 14.224 13.189, 13.686 13.015, 16.500 16.014 C 24.136 24.149, 41.259 32.942, 53.679 35.104 C 70.243 37.989, 85.954 34.099, 102.895 22.917 C 116.766 13.761, 123.705 11.555, 136.526 12.226 C 144.183 12.626, 146.617 13.171, 150.247 15.299 C 152.674 16.721, 155.241 18.586, 155.952 19.442 C 158.239 22.197, 159.172 21.102, 157.307 17.852 C 153.013 10.371, 136.120 4.107, 124.500 5.687 M 113.445 24.774 C 109.015 26.347, 102.020 29.899, 97.901 32.667 C 93.053 35.923, 86.952 38.851, 80.607 40.964 C 71.107 44.129, 70.413 44.215, 58.152 43.736 C 43.742 43.172, 34.889 40.735, 22.449 33.907 C 13.863 29.195, 12.701 29.031, 16.563 33.076 C 23.267 40.097, 35.200 46.940, 45.915 49.909 C 57.089 53.006, 65.492 53.487, 74.946 51.571 C 84.933 49.547, 90.551 47.126, 103.998 39.049 C 119.208 29.914, 122.814 28.636, 133.500 28.595 C 143.128 28.557, 149.888 30.667, 154.738 35.223 C 158.775 39.016, 157.356 34.753, 153.250 30.752 C 147.414 25.067, 141.023 22.683, 130.500 22.268 C 122.602 21.956, 120.514 22.263, 113.445 24.774 M 122 39.153 C 115.869 40.024, 101.887 46.068, 97.996 49.528 C 95.405 51.831, 81.768 57.868, 75.540 59.468 C 67.172 61.619, 53.018 61.434, 43.711 59.054 C 35.615 56.983, 22.964 51.535, 17.930 47.950 C 14.319 45.379, 12.879 46.096, 15.589 49.116 C 22.037 56.297, 36.447 64.703, 47.232 67.574 C 53.586 69.265, 72.919 69.454, 77.929 67.873 C 88.436 64.559, 91.394 63.221, 101.278 57.310 C 117.748 47.462, 122.083 45.764, 132.140 45.227 C 141.285 44.739, 149.556 46.556, 152.091 49.609 C 152.775 50.434, 154.194 51.569, 155.243 52.130 C 156.901 53.017, 157.022 52.912, 156.162 51.326 C 153.432 46.290, 144.553 40.685, 137.453 39.516 C 129.871 38.268, 128.458 38.235, 122 39.153" stroke="none" fill="#4f5039" fill-rule="evenodd"/></svg>