<?xml version="1.0" encoding="UTF-8" standalone="no"?>
<!-- Created with Inkscape (http://www.inkscape.org/) -->

<svg
   width="512"
   height="512"
   viewBox="0 0 135.46666 135.46667"
   version="1.1"
   id="svg1"
   xml:space="preserve"
   inkscape:export-filename="aura-lines-1.png"
   inkscape:export-xdpi="96"
   inkscape:export-ydpi="96"
   inkscape:version="1.4 (e7c3feb1, 2024-10-09)"
   sodipodi:docname="drawing.svg"
   xmlns:inkscape="http://www.inkscape.org/namespaces/inkscape"
   xmlns:sodipodi="http://sodipodi.sourceforge.net/DTD/sodipodi-0.dtd"
   xmlns="http://www.w3.org/2000/svg"
   xmlns:svg="http://www.w3.org/2000/svg"><sodipodi:namedview
     id="namedview1"
     pagecolor="#ffffff"
     bordercolor="#000000"
     borderopacity="0.25"
     inkscape:showpageshadow="2"
     inkscape:pageopacity="0.0"
     inkscape:pagecheckerboard="0"
     inkscape:deskcolor="#d1d1d1"
     inkscape:document-units="px"
     inkscape:zoom="1.022532"
     inkscape:cx="159.40822"
     inkscape:cy="300.23511"
     inkscape:window-width="1600"
     inkscape:window-height="947"
     inkscape:window-x="0"
     inkscape:window-y="25"
     inkscape:window-maximized="1"
     inkscape:current-layer="layer1" /><defs
     id="defs1" /><g
     inkscape:label="Layer 1"
     inkscape:groupmode="layer"
     id="layer1"><circle
       style="fill:#ffffff;stroke-width:0.572538"
       id="path2"
       cx="67.73333"
       cy="67.73333"
       r="67.73333" /><path
       d="M 92.967289,43.734025 C 88.708398,44.403459 83.830166,46.447563 78.622144,49.746 63.967656,59.027475 57.904164,61.156115 48.116037,60.456216 39.235489,59.82105 35.92507,58.742641 27.462037,53.729869 20.23175,49.447459 19.8769,49.314941 21.732949,51.598946 c 5.036531,6.195519 16.330473,12.892163 24.522422,14.538716 10.925236,2.197182 21.287855,-0.765396 32.461752,-9.281475 9.148995,-6.973101 13.725802,-8.653163 22.182237,-8.142138 5.05038,0.304634 6.65579,0.7197 9.05006,2.340362 1.60079,1.082977 3.29393,2.503339 3.76288,3.155257 1.50846,2.098175 2.12384,1.264239 0.89373,-1.210923 -2.83222,-5.697442 -13.97446,-10.46803 -21.638741,-9.26472 m -7.291627,14.536433 c -2.921926,1.197977 -7.53567,3.903138 -10.252467,6.011215 -3.197631,2.47973 -7.221711,4.709661 -11.406731,6.318898 -6.265982,2.410425 -6.723729,2.475921 -14.810805,2.111122 -9.504508,-0.429536 -15.343744,-2.285527 -23.548886,-7.485651 -5.663129,-3.588605 -6.429558,-3.713503 -3.88227,-0.632881 4.421804,5.347112 12.292539,10.55866 19.35991,12.819813 7.370116,2.35864 12.912542,2.724965 19.148185,1.265761 6.587199,-1.541455 10.292703,-3.38526 19.162038,-9.536608 10.032171,-6.957106 12.410605,-7.930417 19.458845,-7.961643 6.350409,-0.02893 10.809149,1.578012 14.008099,5.047809 2.66271,2.888702 1.72677,-0.357946 -0.98145,-3.405061 -3.8493,-4.329631 -8.06465,-6.145255 -15.005377,-6.461314 -5.209343,-0.237616 -6.586541,-0.0037 -11.249091,1.90854 m 5.642683,10.950875 c -4.043867,0.663343 -13.266076,5.266383 -15.832491,7.901477 -1.708964,1.753939 -10.703619,6.351645 -14.811466,7.570185 -5.519344,1.638177 -14.854999,1.497283 -20.993684,-0.315296 -5.339937,-1.577249 -13.684247,-5.726381 -17.00456,-8.456674 -2.381732,-1.958044 -3.331524,-1.411986 -1.544069,0.888011 4.252953,5.468965 13.757462,11.870878 20.871001,14.057398 4.190953,1.28784 16.94256,1.43178 20.247041,0.22771 6.930178,-2.5239 8.881208,-3.542906 15.40047,-8.044654 10.863236,-7.500121 13.722504,-8.793296 20.355867,-9.202271 6.031836,-0.371653 11.487196,1.012153 13.159226,3.337279 0.45115,0.628312 1.38709,1.492714 2.07898,1.919965 1.09358,0.675527 1.17339,0.595561 0.60616,-0.612317 -1.80065,-3.835359 -7.65704,-8.104059 -12.34004,-8.994356 -5.000902,-0.950462 -5.932886,-0.975594 -10.192435,-0.276446"
       stroke="none"
       fill="#4f5039"
       fill-rule="evenodd"
       id="path1"
       style="stroke-width:0.708749" /></g></svg>
